<svg width="669" height="218" viewBox="0 0 669 218" fill="none" xmlns="http://www.w3.org/2000/svg">
<path d="M629.814 46.4943C629.442 41.8542 627.702 38.2349 624.593 35.6364C621.531 33.0379 616.868 31.7386 610.603 31.7386C606.613 31.7386 603.342 32.2258 600.789 33.2003C598.284 34.1283 596.428 35.4044 595.221 37.0284C594.015 38.6525 593.388 40.5085 593.342 42.5966C593.249 44.3134 593.551 45.8679 594.247 47.2599C594.989 48.6056 596.149 49.8352 597.727 50.9489C599.305 52.0161 601.323 52.9905 603.782 53.8722C606.242 54.7538 609.165 55.5426 612.552 56.2386L624.245 58.7443C632.134 60.4148 638.885 62.6188 644.5 65.3565C650.114 68.0942 654.708 71.3191 658.281 75.0313C661.854 78.697 664.475 82.8267 666.146 87.4205C667.863 92.0142 668.744 97.0256 668.791 102.455C668.744 111.828 666.401 119.762 661.761 126.259C657.121 132.755 650.485 137.697 641.855 141.084C633.27 144.471 622.946 146.165 610.882 146.165C598.493 146.165 587.681 144.332 578.447 140.666C569.26 137 562.114 131.363 557.01 123.753C551.952 116.097 549.4 106.306 549.353 94.3807H586.103C586.335 98.7424 587.426 102.408 589.375 105.378C591.323 108.348 594.061 110.598 597.588 112.129C601.161 113.661 605.406 114.426 610.325 114.426C614.455 114.426 617.912 113.916 620.696 112.895C623.48 111.874 625.591 110.459 627.029 108.649C628.468 106.839 629.21 104.775 629.257 102.455C629.21 100.274 628.491 98.3712 627.099 96.7472C625.753 95.0767 623.526 93.5919 620.417 92.2926C617.308 90.947 613.109 89.6941 607.819 88.5341L593.62 85.4716C580.999 82.7339 571.046 78.1634 563.761 71.7599C556.522 65.3101 552.926 56.5171 552.973 45.3807C552.926 36.3324 555.339 28.4209 560.211 21.6463C565.13 14.8253 571.928 9.51231 580.605 5.70739C589.328 1.90246 599.328 0 610.603 0C622.111 0 632.064 1.92566 640.463 5.77699C648.861 9.62832 655.334 15.0573 659.882 22.0639C664.476 29.0241 666.796 37.1676 666.842 46.4943H629.814Z" fill="#20687E"/>
<path d="M535.415 55.4034H496.16C495.881 52.1553 495.139 49.2088 493.933 46.5639C492.772 43.919 491.148 41.6454 489.06 39.7429C487.019 37.794 484.536 36.3092 481.613 35.2884C478.69 34.2211 475.372 33.6875 471.66 33.6875C465.164 33.6875 459.665 35.2652 455.164 38.4205C450.71 41.5758 447.322 46.0999 445.002 51.9929C442.728 57.8859 441.592 64.9621 441.592 73.2216C441.592 81.9451 442.752 89.2533 445.072 95.1463C447.438 100.993 450.849 105.401 455.303 108.371C459.758 111.294 465.117 112.756 471.381 112.756C474.954 112.756 478.156 112.315 480.987 111.433C483.817 110.505 486.276 109.183 488.364 107.466C490.452 105.749 492.146 103.684 493.445 101.271C494.791 98.812 495.696 96.0511 496.16 92.9886L535.415 93.267C534.951 99.2992 533.258 105.447 530.335 111.712C527.411 117.929 523.258 123.683 517.876 128.973C512.54 134.216 505.927 138.439 498.039 141.641C490.151 144.842 480.987 146.443 470.546 146.443C457.461 146.443 445.721 143.636 435.327 138.021C424.98 132.407 416.79 124.147 410.758 113.243C404.772 102.339 401.779 88.9981 401.779 73.2216C401.779 57.3523 404.842 43.9886 410.967 33.1307C417.092 22.2263 425.351 13.9901 435.745 8.42188C446.139 2.80729 457.739 0 470.546 0C479.548 0 487.831 1.22964 495.394 3.68892C502.958 6.1482 509.593 9.74432 515.3 14.4773C521.008 19.1638 525.602 24.9408 529.082 31.8082C532.562 38.6757 534.673 46.5407 535.415 55.4034Z" fill="#20687E"/>
<path d="M271.414 144.494V1.94886H332.942C343.522 1.94886 352.779 3.87453 360.714 7.72585C368.648 11.5772 374.82 17.1222 379.228 24.3608C383.636 31.5994 385.84 40.2765 385.84 50.392C385.84 60.6004 383.567 69.2079 379.019 76.2145C374.518 83.2211 368.184 88.5109 360.018 92.0838C351.897 95.6567 342.408 97.4432 331.55 97.4432H294.8V67.375H323.755C328.302 67.375 332.177 66.8182 335.379 65.7045C338.627 64.5445 341.109 62.7117 342.826 60.206C344.589 57.7003 345.471 54.429 345.471 50.392C345.471 46.3087 344.589 42.991 342.826 40.4389C341.109 37.8404 338.627 35.938 335.379 34.7315C332.177 33.4787 328.302 32.8523 323.755 32.8523H310.113V144.494H271.414ZM354.937 79.0682L390.573 144.494H348.533L313.732 79.0682H354.937Z" fill="#20687E"/>
<path d="M163.409 1.94886L186.795 43.4318H187.909L211.574 1.94886H254.727L212.13 73.2216L256.397 144.494H212.13L187.909 102.176H186.795L162.574 144.494H118.585L162.295 73.2216L119.977 1.94886H163.409Z" fill="#2CA8CE"/>
<path d="M0 144.494V1.94886H102.733V33.1307H38.6989V57.6307H97.4432V88.8125H38.6989V113.312H102.455V144.494H0Z" fill="#2CA8CE"/>
<path d="M634.587 216.494V176.494H659.665V181.69H640.622V193.877H658.356V199.053H640.622V211.299H659.899V216.494H634.587Z" fill="#2CA8CE"/>
<path d="M627.365 189.502H621.271C621.037 188.2 620.601 187.054 619.963 186.065C619.325 185.075 618.544 184.235 617.619 183.545C616.695 182.855 615.66 182.334 614.514 181.983C613.381 181.631 612.176 181.455 610.9 181.455C608.596 181.455 606.532 182.035 604.709 183.194C602.899 184.352 601.467 186.052 600.412 188.291C599.37 190.531 598.85 193.265 598.85 196.494C598.85 199.75 599.37 202.497 600.412 204.737C601.467 206.976 602.906 208.669 604.729 209.815C606.551 210.96 608.602 211.533 610.881 211.533C612.144 211.533 613.342 211.364 614.475 211.026C615.62 210.674 616.656 210.16 617.58 209.483C618.505 208.806 619.286 207.979 619.924 207.002C620.575 206.013 621.024 204.88 621.271 203.604L627.365 203.623C627.04 205.589 626.408 207.399 625.471 209.053C624.546 210.694 623.355 212.113 621.896 213.311C620.451 214.496 618.798 215.414 616.936 216.065C615.074 216.716 613.042 217.041 610.842 217.041C607.378 217.041 604.292 216.221 601.584 214.58C598.876 212.927 596.74 210.563 595.178 207.49C593.628 204.418 592.854 200.752 592.854 196.494C592.854 192.223 593.635 188.558 595.197 185.498C596.76 182.425 598.895 180.069 601.604 178.428C604.312 176.774 607.391 175.947 610.842 175.947C612.964 175.947 614.943 176.253 616.779 176.865C618.628 177.464 620.288 178.35 621.76 179.522C623.231 180.681 624.449 182.1 625.412 183.779C626.376 185.446 627.027 187.354 627.365 189.502Z" fill="#2CA8CE"/>
<path d="M585.339 176.494V216.494H579.792L559.46 187.158H559.089V216.494H553.054V176.494H558.64L578.991 205.869H579.362V176.494H585.339Z" fill="#2CA8CE"/>
<path d="M519.914 216.494V176.494H544.992V181.69H525.949V193.877H543.684V199.053H525.949V211.299H545.227V216.494H519.914Z" fill="#2CA8CE"/>
<path d="M505.788 189.131C505.41 187.946 504.903 186.885 504.265 185.947C503.64 184.997 502.891 184.19 502.019 183.526C501.146 182.848 500.15 182.334 499.03 181.983C497.924 181.631 496.706 181.455 495.378 181.455C493.125 181.455 491.094 182.035 489.284 183.194C487.474 184.352 486.042 186.052 484.987 188.291C483.946 190.518 483.425 193.246 483.425 196.475C483.425 199.717 483.952 202.458 485.007 204.697C486.062 206.937 487.507 208.636 489.343 209.795C491.179 210.954 493.269 211.533 495.612 211.533C497.787 211.533 499.681 211.091 501.296 210.205C502.924 209.32 504.18 208.07 505.065 206.455C505.964 204.828 506.413 202.914 506.413 200.713L507.976 201.006H496.53V196.026H512.253V200.576C512.253 203.936 511.537 206.852 510.104 209.326C508.685 211.787 506.719 213.688 504.206 215.029C501.706 216.371 498.841 217.041 495.612 217.041C491.993 217.041 488.815 216.208 486.081 214.541C483.36 212.875 481.237 210.511 479.714 207.451C478.19 204.378 477.429 200.733 477.429 196.514C477.429 193.324 477.871 190.459 478.757 187.92C479.642 185.381 480.886 183.226 482.487 181.455C484.102 179.671 485.996 178.311 488.171 177.373C490.358 176.423 492.748 175.947 495.339 175.947C497.5 175.947 499.512 176.266 501.374 176.904C503.249 177.543 504.916 178.447 506.374 179.619C507.845 180.791 509.063 182.184 510.026 183.799C510.99 185.401 511.641 187.178 511.979 189.131H505.788Z" fill="#2CA8CE"/>
<path d="M469.929 176.494V216.494H463.894V176.494H469.929Z" fill="#2CA8CE"/>
<path d="M432.849 216.494V176.494H438.884V211.299H457.009V216.494H432.849Z" fill="#2CA8CE"/>
<path d="M401.804 216.494V176.494H407.839V211.299H425.964V216.494H401.804Z" fill="#2CA8CE"/>
<path d="M368.664 216.494V176.494H393.742V181.69H374.699V193.877H392.434V199.053H374.699V211.299H393.977V216.494H368.664Z" fill="#2CA8CE"/>
<path d="M330.866 181.69V176.494H361.823V181.69H349.343V216.494H343.327V181.69H330.866Z" fill="#2CA8CE"/>
<path d="M324.035 176.494V216.494H318.488L298.156 187.158H297.785V216.494H291.75V176.494H297.336L317.688 205.869H318.059V176.494H324.035Z" fill="#2CA8CE"/>
<path d="M282.961 176.494V216.494H276.926V176.494H282.961Z" fill="#2CA8CE"/>
<path d="M229.23 216.494V176.494H254.309V181.69H235.266V193.877H253V199.053H235.266V211.299H254.543V216.494H229.23Z" fill="#20687E"/>
<path d="M215.651 187.002C215.443 185.153 214.584 183.721 213.073 182.705C211.563 181.677 209.662 181.162 207.37 181.162C205.729 181.162 204.31 181.423 203.112 181.944C201.914 182.451 200.983 183.154 200.319 184.053C199.668 184.938 199.343 185.947 199.343 187.08C199.343 188.031 199.564 188.851 200.007 189.541C200.463 190.231 201.055 190.811 201.784 191.279C202.526 191.735 203.321 192.119 204.167 192.432C205.013 192.731 205.827 192.979 206.608 193.174L210.515 194.19C211.791 194.502 213.099 194.925 214.44 195.459C215.782 195.993 217.025 196.696 218.171 197.569C219.317 198.441 220.241 199.522 220.944 200.811C221.66 202.1 222.019 203.643 222.019 205.44C222.019 207.705 221.433 209.717 220.261 211.475C219.102 213.233 217.416 214.619 215.202 215.635C213.002 216.651 210.339 217.158 207.214 217.158C204.219 217.158 201.628 216.683 199.44 215.733C197.253 214.782 195.541 213.434 194.304 211.69C193.067 209.932 192.383 207.848 192.253 205.44H198.308C198.425 206.885 198.894 208.089 199.714 209.053C200.547 210.003 201.608 210.713 202.897 211.182C204.2 211.638 205.625 211.865 207.175 211.865C208.881 211.865 210.397 211.598 211.726 211.065C213.067 210.518 214.121 209.763 214.89 208.799C215.658 207.822 216.042 206.683 216.042 205.381C216.042 204.196 215.703 203.226 215.026 202.471C214.362 201.716 213.457 201.091 212.312 200.596C211.179 200.101 209.896 199.665 208.464 199.287L203.737 197.998C200.534 197.126 197.995 195.843 196.12 194.151C194.258 192.458 193.327 190.218 193.327 187.432C193.327 185.127 193.952 183.115 195.202 181.397C196.452 179.678 198.145 178.343 200.28 177.393C202.416 176.429 204.825 175.947 207.507 175.947C210.215 175.947 212.604 176.423 214.675 177.373C216.758 178.324 218.399 179.632 219.597 181.299C220.795 182.953 221.42 184.854 221.472 187.002H215.651Z" fill="#20687E"/>
<path d="M185.046 176.494V216.494H179.011V176.494H185.046Z" fill="#20687E"/>
<path d="M171.789 189.502H165.695C165.461 188.2 165.025 187.054 164.387 186.065C163.749 185.075 162.967 184.235 162.043 183.545C161.118 182.855 160.083 182.334 158.938 181.983C157.805 181.631 156.6 181.455 155.324 181.455C153.02 181.455 150.956 182.035 149.133 183.194C147.323 184.352 145.891 186.052 144.836 188.291C143.794 190.531 143.273 193.265 143.273 196.494C143.273 199.75 143.794 202.497 144.836 204.737C145.891 206.976 147.329 208.669 149.152 209.815C150.975 210.96 153.026 211.533 155.305 211.533C156.568 211.533 157.766 211.364 158.898 211.026C160.044 210.674 161.079 210.16 162.004 209.483C162.928 208.806 163.71 207.979 164.348 207.002C164.999 206.013 165.448 204.88 165.695 203.604L171.789 203.623C171.464 205.589 170.832 207.399 169.895 209.053C168.97 210.694 167.779 212.113 166.32 213.311C164.875 214.496 163.221 215.414 161.359 216.065C159.497 216.716 157.466 217.041 155.266 217.041C151.802 217.041 148.716 216.221 146.008 214.58C143.299 212.927 141.164 210.563 139.602 207.49C138.052 204.418 137.277 200.752 137.277 196.494C137.277 192.223 138.059 188.558 139.621 185.498C141.184 182.425 143.319 180.069 146.027 178.428C148.736 176.774 151.815 175.947 155.266 175.947C157.388 175.947 159.367 176.253 161.203 176.865C163.052 177.464 164.712 178.35 166.184 179.522C167.655 180.681 168.872 182.1 169.836 183.779C170.799 185.446 171.451 187.354 171.789 189.502Z" fill="#20687E"/>
<path d="M103.117 216.494V176.494H117.375C120.474 176.494 123.046 177.028 125.09 178.096C127.147 179.164 128.684 180.641 129.699 182.529C130.715 184.404 131.223 186.572 131.223 189.033C131.223 191.481 130.708 193.636 129.68 195.498C128.664 197.347 127.128 198.786 125.07 199.815C123.026 200.843 120.454 201.358 117.355 201.358H106.555V196.162H116.809C118.762 196.162 120.35 195.882 121.574 195.322C122.811 194.763 123.716 193.949 124.289 192.881C124.862 191.813 125.148 190.531 125.148 189.033C125.148 187.523 124.855 186.214 124.27 185.108C123.697 184.001 122.792 183.154 121.555 182.569C120.331 181.97 118.723 181.67 116.73 181.67H109.152V216.494H103.117ZM122.863 198.447L132.746 216.494H125.871L116.184 198.447H122.863Z" fill="#20687E"/>
<path d="M69.9775 216.494V176.494H95.0557V181.69H76.0127V193.877H93.7471V199.053H76.0127V211.299H95.29V216.494H69.9775Z" fill="#20687E"/>
<path d="M37.5459 176.494L47.1162 192.139H47.4287L56.999 176.494H63.9912L51.5303 196.494L64.0693 216.494H57.0381L47.4287 201.065H47.1162L37.5068 216.494H30.4756L43.2295 196.494L30.5537 176.494H37.5459Z" fill="#20687E"/>
<path d="M0.207031 216.494V176.494H25.2852V181.69H6.24219V193.877H23.9766V199.053H6.24219V211.299H25.5195V216.494H0.207031Z" fill="#20687E"/>
</svg>
